<svg width="273" height="50" viewBox="0 0 273 50" fill="none" xmlns="http://www.w3.org/2000/svg">
<path fill-rule="evenodd" clip-rule="evenodd" d="M25.0004 4.68759C13.7894 4.68759 4.68781 13.7892 4.68781 25.0001C4.68781 36.2111 13.7894 45.3127 25.0004 45.3127C36.2114 45.3127 45.313 36.2111 45.313 25.0001C45.313 13.7892 36.2114 4.68759 25.0004 4.68759ZM25.0004 6.25009C35.3487 6.25009 43.7505 14.6519 43.7505 25.0001C43.7505 35.3484 35.3487 43.7502 25.0004 43.7502C14.652 43.7502 6.25031 35.3484 6.25031 25.0001C6.25031 14.6519 14.652 6.25009 25.0004 6.25009Z" fill="#0E72ED"/>
<path d="M25.0004 6.25009C35.3487 6.25009 43.7505 14.6519 43.7505 25.0001C43.7505 35.3484 35.3487 43.7502 25.0004 43.7502C14.652 43.7502 6.25031 35.3484 6.25031 25.0001C6.25031 14.6519 14.652 6.25009 25.0004 6.25009Z" fill="#0E72ED"/>
<path fill-rule="evenodd" clip-rule="evenodd" d="M7.15187 17.0634C5.64406 15.7728 4.68781 13.8564 4.68781 11.7189C4.68781 7.83838 7.8386 4.68759 11.7191 4.68759C13.8566 4.68759 15.773 5.64384 17.0636 7.15166C16.5667 7.37276 16.0816 7.61416 15.6074 7.8751C14.616 6.87197 15.5203 10 14 10C13.5 13 12.5 11.7189 9.99998 12.5C9.99998 14.0203 6.87219 14.6157 7.87531 15.6072C7.61438 16.0806 7.37297 16.5665 7.15187 17.0634Z" fill="#0E72ED"/>
<path fill-rule="evenodd" clip-rule="evenodd" d="M42.8489 32.9369C44.3567 34.2275 45.313 36.1439 45.313 38.2815C45.313 42.1619 42.1622 45.3127 38.2817 45.3127C36.1442 45.3127 34.2278 44.3565 32.9371 42.8487C33.434 42.6276 33.9192 42.3862 34.3934 42.1252C35.3848 43.1283 36.5 39.5 36.5 39.5C36.5 39.5 40.0007 39.5203 40 36.5C39.9996 34.8543 43.1286 35.3846 42.1254 34.3932C42.3864 33.9197 42.6278 33.4338 42.8489 32.9369Z" fill="#0E72ED"/>
<path d="M25.76 35.308C23.576 35.308 21.7 34.888 20.132 34.048C18.564 33.208 17.36 32.0227 16.52 30.492C15.6987 28.9613 15.288 27.1693 15.288 25.116C15.288 23.5853 15.5213 22.1947 15.988 20.944C16.4733 19.6933 17.164 18.62 18.06 17.724C18.9747 16.828 20.076 16.1467 21.364 15.68C22.6707 15.1947 24.136 14.952 25.76 14.952C26.6187 14.952 27.5053 15.0547 28.42 15.26C29.3533 15.4467 30.1747 15.736 30.884 16.128C31.4067 16.408 31.7707 16.7627 31.976 17.192C32.1813 17.6213 32.2467 18.06 32.172 18.508C32.116 18.956 31.9573 19.3573 31.696 19.712C31.4347 20.0667 31.0987 20.3093 30.688 20.44C30.2773 20.552 29.8293 20.4867 29.344 20.244C28.784 19.9827 28.224 19.7867 27.664 19.656C27.1227 19.5067 26.5533 19.432 25.956 19.432C24.7987 19.432 23.828 19.656 23.044 20.104C22.2787 20.5333 21.7 21.168 21.308 22.008C20.916 22.848 20.72 23.884 20.72 25.116C20.72 26.348 20.916 27.3933 21.308 28.252C21.7 29.092 22.2787 29.736 23.044 30.184C23.828 30.6133 24.7987 30.828 25.956 30.828C26.4413 30.828 26.964 30.772 27.524 30.66C28.084 30.5293 28.6347 30.3333 29.176 30.072C29.736 29.8293 30.2307 29.764 30.66 29.876C31.108 29.988 31.4627 30.212 31.724 30.548C32.004 30.884 32.1813 31.276 32.256 31.724C32.3307 32.1533 32.2653 32.5827 32.06 33.012C31.8733 33.4413 31.5373 33.7867 31.052 34.048C30.3987 34.44 29.5867 34.748 28.616 34.972C27.664 35.196 26.712 35.308 25.76 35.308Z" fill="white"/>
<path d="M75.76 35.363C73.576 35.363 71.7 34.943 70.132 34.103C68.564 33.263 67.36 32.0777 66.52 30.547C65.6987 29.0163 65.288 27.2243 65.288 25.171C65.288 23.6403 65.5213 22.2497 65.988 20.999C66.4733 19.7483 67.164 18.675 68.06 17.779C68.9747 16.883 70.076 16.2017 71.364 15.735C72.6707 15.2497 74.136 15.007 75.76 15.007C76.6187 15.007 77.5053 15.1097 78.42 15.315C79.3533 15.5017 80.1747 15.791 80.884 16.183C81.4067 16.463 81.7707 16.8177 81.976 17.247C82.1813 17.6763 82.2467 18.115 82.172 18.563C82.116 19.011 81.9573 19.4123 81.696 19.767C81.4347 20.1217 81.0987 20.3643 80.688 20.495C80.2773 20.607 79.8293 20.5417 79.344 20.299C78.784 20.0377 78.224 19.8417 77.664 19.711C77.1227 19.5617 76.5533 19.487 75.956 19.487C74.7987 19.487 73.828 19.711 73.044 20.159C72.2787 20.5883 71.7 21.223 71.308 22.063C70.916 22.903 70.72 23.939 70.72 25.171C70.72 26.403 70.916 27.4483 71.308 28.307C71.7 29.147 72.2787 29.791 73.044 30.239C73.828 30.6683 74.7987 30.883 75.956 30.883C76.4413 30.883 76.964 30.827 77.524 30.715C78.084 30.5843 78.6347 30.3883 79.176 30.127C79.736 29.8843 80.2307 29.819 80.66 29.931C81.108 30.043 81.4627 30.267 81.724 30.603C82.004 30.939 82.1813 31.331 82.256 31.779C82.3307 32.2083 82.2653 32.6377 82.06 33.067C81.8733 33.4963 81.5373 33.8417 81.052 34.103C80.3987 34.495 79.5867 34.803 78.616 35.027C77.664 35.251 76.712 35.363 75.76 35.363ZM93.9331 35.363C91.9358 35.363 90.1811 34.943 88.6691 34.103C87.1571 33.2443 85.9811 32.0497 85.1411 30.519C84.3198 28.9883 83.9091 27.2057 83.9091 25.171C83.9091 23.6403 84.1424 22.2497 84.6091 20.999C85.0944 19.7483 85.7758 18.675 86.6531 17.779C87.5491 16.883 88.6131 16.2017 89.8451 15.735C91.0771 15.2497 92.4398 15.007 93.9331 15.007C95.9304 15.007 97.6758 15.427 99.1691 16.267C100.681 17.107 101.857 18.2923 102.697 19.823C103.537 21.335 103.957 23.1177 103.957 25.171C103.957 26.7017 103.714 28.0923 103.229 29.343C102.762 30.5937 102.081 31.6763 101.185 32.591C100.308 33.487 99.2531 34.1777 98.0211 34.663C96.7891 35.1297 95.4264 35.363 93.9331 35.363ZM93.9331 31.051C94.9224 31.051 95.7624 30.8177 96.4531 30.351C97.1438 29.8843 97.6758 29.2123 98.0491 28.335C98.4224 27.4577 98.6091 26.403 98.6091 25.171C98.6091 23.323 98.1984 21.8857 97.3771 20.859C96.5558 19.8323 95.4078 19.319 93.9331 19.319C92.9624 19.319 92.1224 19.5523 91.4131 20.019C90.7224 20.467 90.1904 21.1297 89.8171 22.007C89.4438 22.8657 89.2571 23.9203 89.2571 25.171C89.2571 27.019 89.6678 28.4657 90.4891 29.511C91.3104 30.5377 92.4584 31.051 93.9331 31.051ZM109.407 35.307C108.623 35.307 108.026 35.1017 107.615 34.691C107.204 34.2803 106.999 33.6737 106.999 32.871V17.611C106.999 16.7897 107.204 16.1643 107.615 15.735C108.026 15.287 108.567 15.063 109.239 15.063C109.836 15.063 110.303 15.175 110.639 15.399C110.975 15.623 111.348 15.9963 111.759 16.519L120.635 27.607H119.851V17.471C119.851 16.687 120.047 16.0897 120.439 15.679C120.85 15.2683 121.447 15.063 122.231 15.063C123.015 15.063 123.603 15.2683 123.995 15.679C124.406 16.0897 124.611 16.687 124.611 17.471V32.983C124.611 33.6923 124.424 34.2617 124.051 34.691C123.678 35.1017 123.174 35.307 122.539 35.307C121.904 35.307 121.4 35.195 121.027 34.971C120.672 34.7283 120.29 34.355 119.879 33.851L111.003 22.735H111.787V32.871C111.787 33.6737 111.582 34.2803 111.171 34.691C110.779 35.1017 110.191 35.307 109.407 35.307ZM130.822 35.307C130 35.307 129.356 35.083 128.89 34.635C128.442 34.1683 128.218 33.5057 128.218 32.647V17.975C128.218 17.1163 128.442 16.463 128.89 16.015C129.356 15.5483 130.028 15.315 130.906 15.315H140.23C140.902 15.315 141.406 15.483 141.742 15.819C142.078 16.155 142.246 16.6403 142.246 17.275C142.246 17.9283 142.078 18.4323 141.742 18.787C141.406 19.123 140.902 19.291 140.23 19.291H133.37V23.267H139.614C140.267 23.267 140.762 23.435 141.098 23.771C141.452 24.107 141.63 24.5923 141.63 25.227C141.63 25.8803 141.452 26.375 141.098 26.711C140.762 27.047 140.267 27.215 139.614 27.215H133.37V32.647C133.37 34.4203 132.52 35.307 130.822 35.307ZM147.121 35.055C146.243 35.055 145.571 34.831 145.105 34.383C144.657 33.9163 144.433 33.2537 144.433 32.395V17.975C144.433 17.1163 144.657 16.463 145.105 16.015C145.571 15.5483 146.243 15.315 147.121 15.315H156.613C157.285 15.315 157.789 15.483 158.125 15.819C158.461 16.155 158.629 16.6403 158.629 17.275C158.629 17.9283 158.461 18.4323 158.125 18.787C157.789 19.123 157.285 19.291 156.613 19.291H149.361V23.043H155.997C156.65 23.043 157.145 23.211 157.481 23.547C157.835 23.883 158.013 24.3777 158.013 25.031C158.013 25.6843 157.835 26.179 157.481 26.515C157.145 26.851 156.65 27.019 155.997 27.019H149.361V31.079H156.613C157.285 31.079 157.789 31.2563 158.125 31.611C158.461 31.947 158.629 32.4323 158.629 33.067C158.629 33.7203 158.461 34.215 158.125 34.551C157.789 34.887 157.285 35.055 156.613 35.055H147.121ZM164.208 35.307C163.387 35.307 162.752 35.083 162.304 34.635C161.856 34.1683 161.632 33.5243 161.632 32.703V17.919C161.632 17.079 161.856 16.435 162.304 15.987C162.771 15.539 163.415 15.315 164.236 15.315H171.124C173.364 15.315 175.091 15.8657 176.304 16.967C177.536 18.0497 178.152 19.5617 178.152 21.503C178.152 22.7537 177.872 23.8457 177.312 24.779C176.771 25.6937 175.977 26.403 174.932 26.907C173.905 27.3923 172.636 27.635 171.124 27.635L171.348 27.131H172.692C173.495 27.131 174.204 27.327 174.82 27.719C175.436 28.0923 175.949 28.671 176.36 29.455L177.76 31.975C178.059 32.5163 178.199 33.0483 178.18 33.571C178.161 34.075 177.956 34.495 177.564 34.831C177.191 35.1483 176.64 35.307 175.912 35.307C175.184 35.307 174.587 35.1577 174.12 34.859C173.672 34.5603 173.271 34.0937 172.916 33.459L170.368 28.783C170.144 28.3723 169.855 28.0923 169.5 27.943C169.164 27.775 168.772 27.691 168.324 27.691H166.784V32.703C166.784 33.5243 166.569 34.1683 166.14 34.635C165.711 35.083 165.067 35.307 164.208 35.307ZM166.784 24.051H170.2C171.189 24.051 171.945 23.855 172.468 23.463C172.991 23.071 173.252 22.4643 173.252 21.643C173.252 20.859 172.991 20.271 172.468 19.879C171.945 19.4683 171.189 19.263 170.2 19.263H166.784V24.051ZM184.089 35.055C183.212 35.055 182.54 34.831 182.073 34.383C181.625 33.9163 181.401 33.2537 181.401 32.395V17.975C181.401 17.1163 181.625 16.463 182.073 16.015C182.54 15.5483 183.212 15.315 184.089 15.315H193.581C194.253 15.315 194.757 15.483 195.093 15.819C195.429 16.155 195.597 16.6403 195.597 17.275C195.597 17.9283 195.429 18.4323 195.093 18.787C194.757 19.123 194.253 19.291 193.581 19.291H186.329V23.043H192.965C193.619 23.043 194.113 23.211 194.449 23.547C194.804 23.883 194.981 24.3777 194.981 25.031C194.981 25.6843 194.804 26.179 194.449 26.515C194.113 26.851 193.619 27.019 192.965 27.019H186.329V31.079H193.581C194.253 31.079 194.757 31.2563 195.093 31.611C195.429 31.947 195.597 32.4323 195.597 33.067C195.597 33.7203 195.429 34.215 195.093 34.551C194.757 34.887 194.253 35.055 193.581 35.055H184.089ZM201.009 35.307C200.225 35.307 199.627 35.1017 199.217 34.691C198.806 34.2803 198.601 33.6737 198.601 32.871V17.611C198.601 16.7897 198.806 16.1643 199.217 15.735C199.627 15.287 200.169 15.063 200.841 15.063C201.438 15.063 201.905 15.175 202.241 15.399C202.577 15.623 202.95 15.9963 203.361 16.519L212.237 27.607H211.453V17.471C211.453 16.687 211.649 16.0897 212.041 15.679C212.451 15.2683 213.049 15.063 213.833 15.063C214.617 15.063 215.205 15.2683 215.597 15.679C216.007 16.0897 216.213 16.687 216.213 17.471V32.983C216.213 33.6923 216.026 34.2617 215.653 34.691C215.279 35.1017 214.775 35.307 214.141 35.307C213.506 35.307 213.002 35.195 212.629 34.971C212.274 34.7283 211.891 34.355 211.481 33.851L202.605 22.735H203.389V32.871C203.389 33.6737 203.183 34.2803 202.773 34.691C202.381 35.1017 201.793 35.307 201.009 35.307ZM229.787 35.363C227.603 35.363 225.727 34.943 224.159 34.103C222.591 33.263 221.387 32.0777 220.547 30.547C219.726 29.0163 219.315 27.2243 219.315 25.171C219.315 23.6403 219.549 22.2497 220.015 20.999C220.501 19.7483 221.191 18.675 222.087 17.779C223.002 16.883 224.103 16.2017 225.391 15.735C226.698 15.2497 228.163 15.007 229.787 15.007C230.646 15.007 231.533 15.1097 232.447 15.315C233.381 15.5017 234.202 15.791 234.911 16.183C235.434 16.463 235.798 16.8177 236.003 17.247C236.209 17.6763 236.274 18.115 236.199 18.563C236.143 19.011 235.985 19.4123 235.723 19.767C235.462 20.1217 235.126 20.3643 234.715 20.495C234.305 20.607 233.857 20.5417 233.371 20.299C232.811 20.0377 232.251 19.8417 231.691 19.711C231.15 19.5617 230.581 19.487 229.983 19.487C228.826 19.487 227.855 19.711 227.071 20.159C226.306 20.5883 225.727 21.223 225.335 22.063C224.943 22.903 224.747 23.939 224.747 25.171C224.747 26.403 224.943 27.4483 225.335 28.307C225.727 29.147 226.306 29.791 227.071 30.239C227.855 30.6683 228.826 30.883 229.983 30.883C230.469 30.883 230.991 30.827 231.551 30.715C232.111 30.5843 232.662 30.3883 233.203 30.127C233.763 29.8843 234.258 29.819 234.687 29.931C235.135 30.043 235.49 30.267 235.751 30.603C236.031 30.939 236.209 31.331 236.283 31.779C236.358 32.2083 236.293 32.6377 236.087 33.067C235.901 33.4963 235.565 33.8417 235.079 34.103C234.426 34.495 233.614 34.803 232.643 35.027C231.691 35.251 230.739 35.363 229.787 35.363ZM241.785 35.055C240.907 35.055 240.235 34.831 239.769 34.383C239.321 33.9163 239.097 33.2537 239.097 32.395V17.975C239.097 17.1163 239.321 16.463 239.769 16.015C240.235 15.5483 240.907 15.315 241.785 15.315H251.277C251.949 15.315 252.453 15.483 252.789 15.819C253.125 16.155 253.293 16.6403 253.293 17.275C253.293 17.9283 253.125 18.4323 252.789 18.787C252.453 19.123 251.949 19.291 251.277 19.291H244.025V23.043H250.661C251.314 23.043 251.809 23.211 252.145 23.547C252.499 23.883 252.677 24.3777 252.677 25.031C252.677 25.6843 252.499 26.179 252.145 26.515C251.809 26.851 251.314 27.019 250.661 27.019H244.025V31.079H251.277C251.949 31.079 252.453 31.2563 252.789 31.611C253.125 31.947 253.293 32.4323 253.293 33.067C253.293 33.7203 253.125 34.215 252.789 34.551C252.453 34.887 251.949 35.055 251.277 35.055H241.785ZM263.358 35.363C262.612 35.363 261.828 35.307 261.006 35.195C260.204 35.1017 259.438 34.9523 258.71 34.747C257.982 34.5417 257.329 34.299 256.75 34.019C256.246 33.7763 255.892 33.459 255.686 33.067C255.481 32.6563 255.406 32.227 255.462 31.779C255.518 31.331 255.677 30.939 255.938 30.603C256.2 30.2483 256.545 30.015 256.974 29.903C257.404 29.7723 257.889 29.8283 258.43 30.071C259.14 30.407 259.942 30.6683 260.838 30.855C261.734 31.0417 262.574 31.135 263.358 31.135C264.59 31.135 265.449 30.9763 265.934 30.659C266.438 30.323 266.69 29.9123 266.69 29.427C266.69 28.9977 266.513 28.6523 266.158 28.391C265.822 28.1297 265.216 27.9057 264.338 27.719L261.062 27.019C259.27 26.6457 257.936 25.9923 257.058 25.059C256.181 24.1257 255.742 22.9217 255.742 21.447C255.742 20.4763 255.938 19.599 256.33 18.815C256.741 18.0123 257.31 17.331 258.038 16.771C258.785 16.211 259.662 15.7817 260.67 15.483C261.697 15.1657 262.836 15.007 264.086 15.007C265.057 15.007 266.037 15.119 267.026 15.343C268.034 15.5483 268.902 15.8657 269.63 16.295C270.06 16.519 270.368 16.827 270.554 17.219C270.741 17.611 270.816 18.0217 270.778 18.451C270.741 18.8617 270.592 19.2257 270.33 19.543C270.088 19.8603 269.752 20.075 269.322 20.187C268.912 20.2803 268.417 20.2057 267.838 19.963C267.297 19.7203 266.681 19.543 265.99 19.431C265.318 19.3003 264.665 19.235 264.03 19.235C263.34 19.235 262.752 19.319 262.266 19.487C261.781 19.6363 261.408 19.8603 261.146 20.159C260.904 20.4577 260.782 20.803 260.782 21.195C260.782 21.587 260.941 21.923 261.258 22.203C261.594 22.4643 262.201 22.6883 263.078 22.875L266.326 23.575C268.137 23.967 269.49 24.611 270.386 25.507C271.282 26.403 271.73 27.5697 271.73 29.007C271.73 29.9777 271.534 30.855 271.142 31.639C270.75 32.423 270.19 33.095 269.462 33.655C268.734 34.1963 267.857 34.6163 266.83 34.915C265.804 35.2137 264.646 35.363 263.358 35.363Z" fill="#0E72ED"/>
</svg>
